HIERARCHY
ROOT Hips
{
	OFFSET 0.000000 0.000000 0.000000
	CHANNELS 6 Xposition Yposition Zposition Zrotation Yrotation Xrotation 
	JOINT LHipJoint
	{
		OFFSET 0.000000 0.000000 0.000000
		CHANNELS 3 Zrotation Yrotation Xrotation
		JOINT LeftUpLeg
		{
			OFFSET 1.363060 -1.794630 0.839290
			CHANNELS 3 Zrotation Yrotation Xrotation
			JOINT LeftLeg
			{
				OFFSET 2.448110 -6.726130 0.000000
				CHANNELS 3 Zrotation Yrotation Xrotation
				JOINT LeftFoot
				{
					OFFSET 2.562200 -7.039590 0.000000
					CHANNELS 3 Zrotation Yrotation Xrotation
					JOINT LeftToeBase
					{
						OFFSET 0.157640 -0.433110 2.322550
						CHANNELS 3 Zrotation Yrotation Xrotation
						End Site
						{
							OFFSET 0.000000 0.000000 0.000000
						}
					}
				}
			}
		}
	}
	JOINT RHipJoint
	{
		OFFSET 0.000000 0.000000 0.000000
		CHANNELS 3 Zrotation Yrotation Xrotation
		JOINT RightUpLeg
		{
			OFFSET -1.305520 -1.794630 0.839290
			CHANNELS 3 Zrotation Yrotation Xrotation
			JOINT RightLeg
			{
				OFFSET -2.542530 -6.985550 0.000000
				CHANNELS 3 Zrotation Yrotation Xrotation
				JOINT RightFoot
				{
					OFFSET -2.568260 -7.056230 0.000000
					CHANNELS 3 Zrotation Yrotation Xrotation
					JOINT RightToeBase
					{
						OFFSET -0.164730 -0.452590 2.363150
						CHANNELS 3 Zrotation Yrotation Xrotation
						End Site
						{
							OFFSET 0.000000 0.000000 0.000000
						}
					}
				}
			}
		}
	}
	JOINT LowerBack
	{
		OFFSET 0.000000 0.000000 0.000000
		CHANNELS 3 Zrotation Yrotation Xrotation
		JOINT Spine
		{
			OFFSET 0.028270 2.035590 -0.193380
			CHANNELS 3 Zrotation Yrotation Xrotation
			JOINT Spine1
			{
				OFFSET 0.056720 2.048850 -0.042750
				CHANNELS 3 Zrotation Yrotation Xrotation
				JOINT Neck
				{
					OFFSET 0.000000 0.000000 0.000000
					CHANNELS 3 Zrotation Yrotation Xrotation
					JOINT Neck1
					{
						OFFSET -0.054170 1.746240 0.172020
						CHANNELS 3 Zrotation Yrotation Xrotation
						JOINT Head
						{
							OFFSET 0.104070 1.761360 -0.123970
							CHANNELS 3 Zrotation Yrotation Xrotation
							End Site
							{
								OFFSET 0.000000 0.000000 0.000000
							}
						}
					}
				}
				JOINT LeftShoulder
				{
					OFFSET 0.000000 0.000000 0.000000
					CHANNELS 3 Zrotation Yrotation Xrotation
					JOINT LeftArm
					{
						OFFSET 3.362410 1.200890 -0.311210
						CHANNELS 3 Zrotation Yrotation Xrotation
						JOINT LeftForeArm
						{
							OFFSET 4.983000 -0.000000 -0.000000
							CHANNELS 3 Zrotation Yrotation Xrotation
							JOINT LeftHand
							{
								OFFSET 3.483560 -0.000000 -0.000000
								CHANNELS 3 Zrotation Yrotation Xrotation
								JOINT LeftFingerBase
								{
									OFFSET 0.000000 0.000000 0.000000
									CHANNELS 3 Zrotation Yrotation Xrotation
									JOINT LeftHandIndex1
									{
										OFFSET 0.715260 -0.000000 -0.000000
										CHANNELS 3 Zrotation Yrotation Xrotation
										End Site
										{
											OFFSET 0.000000 0.000000 0.000000
										}
									}
								}
								JOINT LThumb
								{
									OFFSET 0.000000 0.000000 0.000000
									CHANNELS 3 Zrotation Yrotation Xrotation
									End Site
									{
										OFFSET 0.000000 0.000000 0.000000
									}
								}
							}
						}
					}
				}
				JOINT RightShoulder
				{
					OFFSET 0.000000 0.000000 0.000000
					CHANNELS 3 Zrotation Yrotation Xrotation
					JOINT RightArm
					{
						OFFSET -3.136600 1.374050 -0.404650
						CHANNELS 3 Zrotation Yrotation Xrotation
						JOINT RightForeArm
						{
							OFFSET -5.241900 -0.000000 -0.000000
							CHANNELS 3 Zrotation Yrotation Xrotation
							JOINT RightHand
							{
								OFFSET -3.444170 -0.000000 -0.000000
								CHANNELS 3 Zrotation Yrotation Xrotation
								JOINT RightFingerBase
								{
									OFFSET 0.000000 0.000000 0.000000
									CHANNELS 3 Zrotation Yrotation Xrotation
									JOINT RightHandIndex1
									{
										OFFSET -0.622530 -0.000000 -0.000000
										CHANNELS 3 Zrotation Yrotation Xrotation
										End Site
										{
											OFFSET 0.000000 0.000000 0.000000
										}
									}
								}
								JOINT RThumb
								{
									OFFSET 0.000000 0.000000 0.000000
									CHANNELS 3 Zrotation Yrotation Xrotation
									End Site
									{
										OFFSET 0.000000 0.000000 0.000000
									}
								}
							}
						}
					}
				}
			}
		}
	}
}
MOTION
Frames: 12
Frame Time: 0.008333
-5.807383 9.526160 -0.786656 -26.898786 -24.582078 -6.147836 -2.341296 -3.156631 -2.036041 24.414414 26.244593 -97.511298 30.559041 12.673710 128.379658 7.481948 -20.821796 17.998662 3.237700 -11.070200 -32.516900 0.677850 3.879081 -4.997226 -12.553032 -11.649575 -56.370894 -24.181599 -17.813196 102.162451 -3.599684 16.735576 11.138895 -1.840500 8.525600 -24.322300 -3.411783 1.271428 30.810340 -1.392905 0.794442 4.497305 -2.623877 0.317793 4.113036 -7.254883 -3.554041 -5.722720 16.767874 -7.942695 15.153414 6.876700 -3.487600 5.288600 -12.683054 -9.730867 3.582066 -46.640418 -13.232882 -34.985185 -0.263725 -3.548547 -0.783442 -1.857602 1.354345 5.416251 16.109430 -0.454027 -0.542700 -7.125000 0.000000 0.000000 -6.561900 28.210000 2.696900 12.052329 8.940427 2.140502 39.745826 36.028751 19.170092 -52.133723 44.935629 -30.267013 1.594859 -0.407797 -13.433241 -34.161772 0.248938 -0.828900 7.125000 0.000000 0.000000 -7.023100 -28.529000 -2.835500 
-5.683521 9.569975 -0.735594 -26.139153 -23.968630 -6.454171 -2.744675 -3.227082 -1.853880 27.043868 33.295510 -98.204749 31.272415 11.749590 131.774678 7.767265 -25.813401 18.240323 2.999900 -10.695000 -31.257900 0.760397 4.070516 -5.233709 -14.352712 -8.041733 -55.165665 -22.560441 -18.422100 96.635343 -3.189954 12.523488 11.833398 -1.332200 7.308700 -20.633300 -3.708059 0.878357 31.126139 -1.244179 0.293096 4.405892 -1.862772 -0.026985 4.086302 -7.305616 -3.683683 -5.904900 16.555601 -8.003009 14.822365 6.801000 -3.526800 5.195400 -12.641388 -9.573078 3.448826 -47.094124 -12.810384 -33.883995 -0.307792 -3.691163 -0.589496 -1.288674 0.642460 8.454277 9.552147 1.343742 0.171100 -7.125000 0.000000 0.000000 -12.373200 30.743600 4.400700 12.061735 8.694955 2.534182 43.304462 35.771143 19.886477 -47.650284 43.447228 -26.368214 1.847408 -0.509630 -14.471060 -35.040626 -0.886772 -0.205900 7.125000 0.000000 0.000000 -7.951500 -29.590100 -3.014300 
-5.566236 9.599519 -0.685648 -25.372698 -23.347858 -6.743053 -3.120842 -3.340321 -1.723351 30.396696 40.200454 -98.221323 31.888630 10.937840 134.515810 7.536809 -30.590776 18.477947 2.752900 -10.283800 -29.900800 0.858297 4.275339 -5.477346 -16.282229 -4.501641 -53.762208 -20.788565 -18.882224 90.727793 -2.735468 9.117927 12.306010 -1.059000 6.543000 -18.368300 -4.001572 0.496626 31.519955 -1.081962 -0.200649 4.326068 -1.093291 -0.361420 4.031288 -7.391599 -3.819723 -6.068775 16.441404 -8.082910 14.411444 6.760000 -3.571900 5.088600 -12.581862 -9.434515 3.294009 -47.633362 -12.153588 -30.031929 -0.146386 -4.510769 -0.570191 -0.738524 -0.150341 9.566636 3.282128 2.377567 0.184300 -7.125000 0.000000 0.000000 -18.065400 32.245800 5.898100 12.067294 8.484900 2.829990 46.558354 35.260807 20.222123 -43.278024 41.815437 -22.858557 2.107285 -0.524705 -15.506361 -35.832953 -2.291085 0.732000 7.125000 0.000000 0.000000 -8.883300 -31.102800 -3.049800 
-5.455529 9.612340 -0.635144 -24.556253 -22.737676 -6.980712 -3.439132 -3.446178 -1.638738 34.504433 46.033560 -97.204184 32.360436 10.319238 136.501936 6.768752 -34.831347 19.528278 2.463500 -9.771200 -28.239100 0.955613 4.473712 -5.728416 -18.360238 -0.987913 -52.265717 -18.908939 -19.165048 84.623322 -2.333404 6.506448 12.654867 -1.036500 6.475200 -18.169700 -4.301299 0.155836 31.884209 -0.906752 -0.641493 4.270305 -0.317998 -0.666548 3.998348 -7.567699 -3.989526 -6.168879 16.443437 -8.220060 13.888489 6.769000 -3.646700 4.952100 -12.501449 -9.326284 3.125027 -48.252450 -11.348663 -24.215240 0.355506 -6.003372 -0.734618 -0.151764 -0.800363 9.250713 -2.075110 2.222871 -0.108900 -7.125000 0.000000 0.000000 -22.778400 32.346200 7.588500 12.077917 8.310045 3.026723 49.366586 34.499063 20.161663 -39.051312 40.005992 -19.719228 2.365298 -0.447632 -16.481271 -36.398513 -4.056705 2.079500 7.125000 0.000000 0.000000 -9.721300 -33.203700 -2.845600 
-5.352068 9.607100 -0.581630 -23.666631 -22.139396 -7.107430 -3.678916 -3.514438 -1.592721 38.847699 50.264579 -95.149485 32.677051 9.920052 137.686410 5.691113 -38.218006 21.066743 2.349000 -9.558100 -27.557200 1.039581 4.649233 -5.992026 -20.626955 2.502517 -50.818902 -16.921679 -19.247473 78.331308 -2.041246 4.595042 13.241938 -1.175100 6.880400 -19.361600 -4.484675 -0.136984 32.101669 -0.769497 -0.997989 4.241233 0.278410 -0.907811 4.021570 -7.790134 -4.220877 -6.153826 16.625641 -8.473069 13.222503 6.855300 -3.783100 4.773200 -12.422945 -9.251664 2.960797 -48.735395 -10.511570 -17.654940 1.291702 -8.037677 -1.046747 0.390265 -1.146516 8.418008 -5.580908 0.878657 -0.210700 -7.125000 0.000000 0.000000 -25.537500 31.151900 9.504000 12.095296 8.164822 3.143462 51.759797 33.525993 19.629409 -34.954837 37.984015 -16.904503 2.615746 -0.277691 -17.401906 -36.626023 -6.245409 3.869100 7.125000 0.000000 0.000000 -10.375000 -35.962400 -2.336100 
-5.308254 9.528278 -0.494447 -22.786273 -21.578489 -7.069251 -3.873999 -3.563189 -1.571237 43.848760 53.864222 -92.377309 32.920812 9.639000 138.286026 3.802412 -42.211710 23.669663 2.210700 -9.291800 -26.712300 1.110923 4.795478 -6.269036 -23.215964 5.873609 -49.928029 -15.025991 -19.135599 72.414236 -1.878917 3.270354 14.194513 -1.329500 7.301800 -20.612500 -4.413897 -0.389728 32.107321 -0.679845 -1.248183 4.234510 0.606968 -1.062213 4.107749 -7.987126 -4.531633 -5.960623 16.936333 -8.861244 12.400335 6.991600 -3.996000 4.529900 -12.349687 -9.204191 2.817837 -48.992173 -9.754807 -11.381528 2.679087 -10.435088 -1.467586 0.768093 -1.185685 7.671738 -6.655562 -1.229691 0.019700 -7.125000 0.000000 0.000000 -26.038200 29.166200 11.127600 12.122624 8.049877 3.198788 53.769395 32.394255 18.640695 -30.963165 35.731944 -14.370979 2.853365 -0.010434 -18.366272 -36.477535 -8.868524 6.047900 7.125000 0.000000 0.000000 -10.784200 -39.356400 -1.520400 
-5.217057 9.491264 -0.425325 -21.734687 -21.006036 -6.933655 -3.944615 -3.543373 -1.600346 46.733525 55.021354 -89.082573 32.930833 9.589995 137.904338 2.137944 -44.871180 25.624987 2.152600 -9.177000 -26.350400 1.144639 4.907888 -6.563594 -25.779652 9.114071 -48.879097 -13.035706 -18.800937 66.162580 -1.707127 1.759755 15.409443 -1.612800 8.008300 -22.739200 -4.260222 -0.591119 31.878913 -0.634940 -1.414310 4.244388 0.746106 -1.156822 4.271542 -8.189244 -4.918715 -5.612767 17.315582 -9.369409 11.478383 7.158500 -4.278800 4.242600 -12.273210 -9.188195 2.705901 -49.069661 -9.196300 -5.980614 4.469738 -13.032772 -1.988466 0.908742 -0.989097 7.021525 -5.139281 -3.518186 0.284900 -7.125000 0.000000 0.000000 -24.468600 26.957900 11.750100 12.160958 7.959403 3.204128 55.369212 31.165815 17.283957 -27.052297 33.242161 -12.090592 3.071494 0.373410 -19.520180 -35.949553 -11.990044 8.567900 7.125000 0.000000 0.000000 -10.897100 -43.413400 -0.432100 
-5.125526 9.443771 -0.350740 -20.540213 -20.437447 -6.783894 -3.961248 -3.504474 -1.656972 47.984962 55.487654 -85.919916 32.849697 9.509476 137.156813 0.418997 -47.510693 25.568140 2.356700 -9.572600 -27.603400 1.153889 4.992092 -6.876500 -28.387939 12.027975 -48.108002 -11.198472 -18.268618 60.214320 -1.485279 -0.037775 16.787899 -1.928100 8.714700 -24.906900 -4.060138 -0.724863 31.509818 -0.614120 -1.484324 4.277714 0.782504 -1.192171 4.509180 -8.398558 -5.383386 -5.189826 17.695095 -9.994263 10.557017 7.321400 -4.624900 3.959500 -12.178675 -9.197937 2.623484 -49.056613 -8.918451 -1.497173 6.611493 -15.751405 -2.643437 0.797655 -0.666881 6.152534 -1.407393 -5.274797 0.186200 -7.125000 0.000000 0.000000 -21.337900 25.164300 10.982200 12.217719 7.899052 3.176880 56.517361 29.898683 15.630245 -23.214141 30.523007 -10.061001 3.249420 0.866489 -21.008808 -35.149111 -15.387347 11.143800 7.125000 0.000000 0.000000 -10.689100 -47.781400 0.741500 
-5.031430 9.386355 -0.271361 -19.266207 -19.881034 -6.643971 -3.967601 -3.463276 -1.719052 48.148258 55.879887 -83.031773 32.740376 9.342149 136.386683 -1.462711 -50.286076 24.010563 2.564600 -9.954400 -28.829300 1.142419 5.060100 -7.211632 -30.816907 14.434932 -47.643871 -9.565534 -17.564704 54.620348 -1.176480 -2.250345 18.379011 -2.047700 8.964800 -25.685300 -3.809070 -0.805872 31.051987 -0.589695 -1.470488 4.330860 0.788731 -1.181793 4.815198 -8.607910 -5.925294 -4.791168 17.985041 -10.731319 9.763408 7.432700 -5.023900 3.738600 -12.049839 -9.226709 2.561492 -49.077427 -8.938029 2.070157 9.067921 -18.557414 -3.498591 0.489708 -0.307278 4.820778 3.790673 -6.213459 -0.340100 -7.125000 0.000000 0.000000 -17.206900 24.020300 9.113800 12.297100 7.866325 3.131154 57.209829 28.627928 13.801155 -19.470508 27.619324 -8.292471 3.357374 1.459213 -22.783526 -34.062604 -18.985091 13.593300 7.125000 0.000000 0.000000 -10.006200 -52.305500 1.814200 
-4.932875 9.319016 -0.188414 -18.089500 -19.367042 -6.506117 -4.015146 -3.439800 -1.765405 47.832215 56.565514 -80.601192 32.655302 9.064418 135.925400 -3.062533 -52.904005 20.773270 2.743300 -10.267500 -29.847400 1.124647 5.132168 -7.546881 -32.728342 16.174508 -47.602566 -8.235961 -16.797216 49.702727 -0.767506 -4.752995 19.819692 -1.926900 8.712000 -24.898600 -3.433081 -0.876019 30.591704 -0.508214 -1.405123 4.386855 0.865858 -1.149707 5.136133 -8.900849 -6.524289 -4.492300 18.125472 -11.549350 9.214579 7.474200 -5.453900 3.633400 -11.868901 -9.267834 2.507307 -49.313342 -9.192480 4.708288 11.811736 -21.444101 -4.627010 0.075803 0.023277 2.976122 9.654828 -6.463822 -1.093400 -7.125000 0.000000 0.000000 -12.602500 23.421400 6.712800 12.399357 7.851821 3.071641 57.460172 27.333978 11.997390 -15.882327 24.639386 -6.819418 3.378792 2.120350 -24.501488 -32.876011 -22.792177 15.900200 7.125000 0.000000 0.000000 -8.868500 -56.977800 2.616900 
-4.830864 9.239749 -0.101565 -17.185043 -18.938874 -6.353832 -4.169293 -3.460592 -1.785030 47.640022 57.968077 -78.803743 32.657056 8.623655 136.105212 -3.252254 -55.017246 14.501020 2.985300 -10.671300 -31.179100 1.124270 5.237245 -7.851084 -33.774853 17.091514 -48.071044 -7.217019 -16.067860 45.630448 -0.285003 -7.278875 20.904178 -1.656000 8.109400 -23.046900 -2.838375 -0.973931 30.205473 -0.325366 -1.314935 4.431363 1.086400 -1.114556 5.418208 -9.379582 -7.157761 -4.325039 18.105116 -12.413545 8.955770 7.455500 -5.895400 3.667000 -11.630058 -9.315044 2.454064 -49.888026 -9.614611 6.470613 14.832495 -24.415130 -6.089347 -0.369676 0.293840 0.808864 15.805533 -6.297791 -1.905900 -7.125000 0.000000 0.000000 -7.775200 23.139600 4.131100 12.522732 7.843798 2.999285 57.302116 25.970970 10.418918 -12.535350 21.718885 -5.651679 3.311735 2.784351 -25.742646 -31.651512 -26.641889 17.913800 7.125000 0.000000 0.000000 -7.115400 -61.571500 2.878100 
-4.726401 9.146657 -0.009365 -16.640630 -18.644310 -6.208239 -4.435601 -3.536265 -1.799757 48.259222 60.207478 -77.438770 32.816161 8.076595 136.965716 -2.187506 -56.399007 7.758125 3.090500 -10.840200 -31.742700 1.152558 5.393154 -8.086993 -33.713700 17.125296 -49.107052 -6.462604 -15.456001 42.503218 0.184187 -9.431326 21.580010 -1.299600 7.222400 -20.376000 -1.969864 -1.114184 29.951777 -0.027509 -1.210257 4.463756 1.459707 -1.083946 5.632650 -10.106348 -7.808416 -4.286140 17.962730 -13.297264 8.966425 7.404800 -6.336700 3.837200 -11.342700 -9.362643 2.403411 -50.828250 -10.182916 7.467793 18.105463 -27.438211 -7.918542 -0.753117 0.505264 -1.215193 21.939023 -6.176233 -2.793200 -7.125000 0.000000 0.000000 -2.994800 22.722800 1.607700 12.658934 7.829786 2.912293 56.845406 24.478749 9.239961 -9.569474 19.051621 -4.789829 3.168859 3.398088 -26.160322 -30.294112 -30.474248 19.497000 7.125000 0.000000 0.000000 -4.287500 -65.970600 2.171800 
